<?xml version="1.0" encoding="utf-8"?>
<!-- Generator: Adobe Illustrator 23.0.2, SVG Export Plug-In . SVG Version: 6.00 Build 0)  -->
<svg version="1.1" xmlns="http://www.w3.org/2000/svg" xmlns:xlink="http://www.w3.org/1999/xlink" x="0px" y="0px"
	 viewBox="0 0 750 500" enable-background="new 0 0 750 500" xml:space="preserve">
<g id="BACKGROUND">
	<rect fill="#3EAFEB" width="750" height="500"/>
</g>
<g id="OBJECTS">
	<g>
		<circle fill="#FFD95F" cx="375" cy="200.5" r="153.5"/>
	</g>
	<g opacity="0.5">
		<defs>
			<rect id="SVGID_1_" opacity="0.5" width="750" height="500"/>
		</defs>
		<clipPath id="SVGID_2_">
			<use xlink:href="#SVGID_1_"  overflow="visible"/>
		</clipPath>
		<g clip-path="url(#SVGID_2_)">
			<path fill="#FFFFFF" d="M621.6,259.6c0,0-0.5-12.5,8.3-17.1c8.7-4.7,15.6-1,15.6-1s-13.7-39,26.9-49.5
				c40.6-10.5,47.3,32.1,47.3,32.1s4.4-10.1,14.1-6.5c9.7,3.6,7.1,17,7.1,17s10.7-5.9,19.2,3s4.2,22,4.2,22H621.6z"/>
			<path fill="#FFFFFF" d="M572.8,86.5c0,0-3-11.7,8.3-17.2c11.3-5.5,20,2,20,2s-1.2-31.5,27.2-31.5c28.3,0,29.5,31.7,29.5,31.7
				s4.7-7,16.2-3s9.5,18,9.5,18H572.8z"/>
			<path fill="#FFFFFF" d="M-4.3,92.9h108.8c0,0,13-45.3-16.4-52.1s-38,27.5-38,27.5s-6.3-13-19.3-9.3S20.7,77.3,20.7,77.3
				S14.2,73.8,5,79.2C-4.3,84.5-4.3,92.9-4.3,92.9z"/>
			<path fill="#FFFFFF" d="M180.2,217.8H82.1c0,0-5.3-6.9-1.2-12.5c4.1-5.6,11.7-2.7,11.7-2.7s-0.8-15.8,14.5-18.4
				c15.3-2.7,21.3,17.4,21.3,17.4s4.5-11.1,14.5-7.8c10,3.3,8.8,16.3,8.8,16.3s7.4-4.4,16.8-3.3C177.7,208,180.2,217.8,180.2,217.8z
				"/>
		</g>
	</g>
	<g>
		<defs>
			<rect id="SVGID_3_" transform="matrix(-1 -1.224647e-16 1.224647e-16 -1 750 500)" width="750" height="500"/>
		</defs>
		<clipPath id="SVGID_4_">
			<use xlink:href="#SVGID_3_"  overflow="visible"/>
		</clipPath>
		<g clip-path="url(#SVGID_4_)">
			<g>
				<g>
					<path fill="#6BEDE6" d="M798.2,309.4c-45.8-14.2-94.2-28.6-140.9-17.6c-32.3,7.6-62.1,27.1-95.3,27.3
						c-25.9,0.2-50.1-11.5-74.9-18.8c-46.3-13.7-97-12.1-142.4,4.3c-26,9.4-51.8,23.8-79.3,21.4c-26.8-2.4-49.6-20.2-75.6-26.9
						c-34.8-8.8-71,3.2-106.4,9.8s-77,5.8-100.7-21.3v247.1H801L798.2,309.4z"/>
				</g>
				<g>
					<path fill="#6BEDE6" d="M798.2,309.4c-45.8-14.2-94.2-28.6-140.9-17.6c-32.3,7.6-62.1,27.1-95.3,27.3
						c-25.9,0.2-50.1-11.5-74.9-18.8c-46.3-13.7-97-12.1-142.4,4.3c-26,9.4-51.8,23.8-79.3,21.4c-26.8-2.4-49.6-20.2-75.6-26.9
						c-34.8-8.8-71,3.2-106.4,9.8s-77,5.8-100.7-21.3v247.1H801L798.2,309.4z"/>
				</g>
			</g>
			<g>
				<g>
					<path fill="#6BEDE6" d="M778.2,311.2c-25.2,15.2-56.4,16.9-85.7,13.5c-29.2-3.4-57.9-11.4-87.2-14
						c-43.8-3.8-87.7,4.6-131.4,9.9c-48.2,5.8-96.9-5-145.4-3c-59.2,2.4-118.8,20.5-177.6,13.2c-63.5-7.9-130.1-29.7-189.7-6.2
						v232.5h816.9V311.2z"/>
				</g>
				<g opacity="0.5">
					<path fill="#6BEDE6" d="M778.2,311.2c-25.2,15.2-56.4,16.9-85.7,13.5c-29.2-3.4-57.9-11.4-87.2-14
						c-43.8-3.8-87.7,4.6-131.4,9.9c-48.2,5.8-96.9-5-145.4-3c-59.2,2.4-118.8,20.5-177.6,13.2c-63.5-7.9-130.1-29.7-189.7-6.2
						v232.5h816.9V311.2z"/>
				</g>
			</g>
			<g>
				<path fill="#6BEDE6" d="M783.4,324.3c-36.3,15.3-76.9-11.6-116.3-9.5c-32.1,1.7-60.7,22.6-92.7,25.1
					c-43,3.4-83.4-26.8-126.4-23.4c-36,2.8-67.6,28.8-103.7,28.9c-35.4,0.1-66.2-24.5-101.2-30.3c-60.2-10-117.7,37.1-178.6,32.2
					c-35.3-2.8-71.4-23-104.4-9.9v228.9h838L783.4,324.3z"/>
			</g>
			<g opacity="0.3">
				<g>
					<path fill="#FFFFFF" d="M584.8,349.3c-13.8,5.6-29.4,3.9-43.7-0.1c-14.3-4.1-27.8-10.4-42.2-14.2c-41.1-10.9-87.4,1-118.2,30.3
						c22.1-14,48.3-21.6,74.4-21.4c22,0.1,43.7,5.6,65.3,9.5C542.2,357.4,566.6,359.1,584.8,349.3"/>
				</g>
				<g>
					<path fill="#FFFFFF" d="M61.8,357.5c18.2,5.9,38.1,3.3,56.6-1.8s36.2-12.7,54.9-16.8c18.7-4.1,39.1-4.6,56.1,4.2
						c-28.8-1-56.2,10.7-83.8,18.9c-27.6,8.2-58.9,9.6-84-4.4"/>
				</g>
				<g>
					<path fill="#FFFFFF" d="M208.5,391.3c11.1-28.5,59.9-37.6,93.3-29.9c31.4,7.2,58.9,30,91.1,30.9c-20.6,5.6-42.5,1.7-63.2-3.7
						c-20.6-5.4-29.3-13.1-50.6-13.5C257.8,374.6,220.6,373.7,208.5,391.3"/>
				</g>
				<g>
					<path fill="#FFFFFF" d="M633.8,370.4c16.6-20.7,46-27.8,72.6-26.9s52.5,8.1,79,10.4c-23.4,11.2-50.7,7.9-76.5,5.4
						c-25.8-2.5-53.9-3.4-75.2,11.3"/>
				</g>
				<path fill="#FFFFFF" d="M-46.6,393.6c0,0,39.3-26.3,74.3-11.3s48.3,30.7,64.7,25.3c0,0-16,15.7-63.7-10
					C-19,371.9-46.6,393.6-46.6,393.6z"/>
			</g>
		</g>
	</g>
	<g>
		<text transform="matrix(1 0 0 1 199.9025 260.5999)"><tspan x="0" y="0" fill="#FFFFFF" font-family="'Impact'" font-size="80px" letter-spacing="-1">V</tspan><tspan x="40.8" y="0" fill="#FFFFFF" font-family="'Impact'" font-size="80px">acances!</tspan></text>
		<g>
			<g>
				<path fill="#FFFFFF" d="M268.7,149.2c8.8,1.5,16,5.7,16,14.6c0,6.3-3.5,11.2-8.9,14.2c-4.8,2.7-9.5,3.6-15.9,3.6h-22.6V179
					c7.8-0.7,8.3-1.6,8.3-8.8v-36.9c0-7.6-0.8-8.3-8.3-8.9v-2.6h24.1c6.9,0,11.2,1.2,14.2,3.2c3.2,2.2,5.4,5.6,5.4,10.3
					C281,144,273.9,147.9,268.7,149.2z M258.1,148.1c10.1,0,14.3-4,14.3-11.6c0-6.4-4-11.4-12.8-11.4c-2.6,0-4.2,0.3-5.2,0.9
					c-0.7,0.6-1,1.6-1,4.5v17.6H258.1z M253.5,170c0,6.6,1.6,8.3,8.1,8.3c7.2,0,14.2-3.9,14.2-13.5c0-9.4-6.6-13.4-17.8-13.4h-4.4
					V170z"/>
				<path fill="#FFFFFF" d="M313.2,140.1c11.5,0,20.1,8.7,20.1,20.6c0,14.9-11,22-20.1,22c-12.7,0-20.4-10.2-20.4-20.5
					C292.7,147.2,304.4,140.1,313.2,140.1z M312.1,143.2c-5.6,0-10.7,5.4-10.7,16.1c0,11.7,5.2,20.1,12.7,20.1
					c5.7,0,10.5-4.1,10.5-16.7C324.6,152,320.1,143.2,312.1,143.2z"/>
				<path fill="#FFFFFF" d="M365.6,181.6V179c5.3-0.6,5.9-1.2,5.9-7.5v-15.2c0-6.4-2.3-10.8-8.4-10.8c-3.8,0-7.4,2.2-10.2,4.8v21.5
					c0,6.3,0.6,6.5,6,7.1v2.6H339V179c6.1-0.6,6.6-1,6.6-7.1v-19c0-6-0.6-6.3-5.6-7.1v-2.4c4.5-0.7,9-1.9,12.9-3.7
					c0,2.1,0,5.1,0,7.3c1.8-1.3,3.9-2.7,6.3-4.2c2.6-1.7,5-2.8,7.6-2.8c7.4,0,12,5.4,12,14.4v17.5c0,6.3,0.6,6.5,5.9,7.1v2.6H365.6z
					"/>
				<path fill="#FFFFFF" d="M416.5,181.6V179c5.3-0.6,5.9-1.2,5.9-7.5v-15.2c0-6.4-2.3-10.8-8.4-10.8c-3.8,0-7.4,2.2-10.2,4.8v21.5
					c0,6.3,0.6,6.5,6,7.1v2.6h-19.9V179c6.1-0.6,6.6-1,6.6-7.1v-19c0-6-0.6-6.3-5.6-7.1v-2.4c4.5-0.7,9-1.9,12.9-3.7
					c0,2.1,0,5.1,0,7.3c1.8-1.3,3.9-2.7,6.3-4.2c2.6-1.7,5-2.8,7.6-2.8c7.4,0,12,5.4,12,14.4v17.5c0,6.3,0.6,6.5,5.9,7.1v2.6H416.5z
					"/>
				<path fill="#FFFFFF" d="M474.3,173.8c-5.9,7.4-12.3,8.9-15.3,8.9c-11.2,0-18-9.2-18-19.8c0-6.3,2.2-12.1,6-16.1
					c3.9-4.3,8.9-6.7,13.7-6.7c8,0,14.1,6.9,14.1,14.3c-0.1,1.8-0.4,2.7-1.8,3c-1.8,0.4-13.6,1.2-24.6,1.6
					c-0.3,12.3,7.3,17.4,13.8,17.4c3.8,0,7.3-1.6,10.7-4.7L474.3,173.8z M458.5,143.6c-4.2,0-8.4,4-9.7,11.4c5.2,0,10.3,0,15.7-0.3
					c1.7,0,2.2-0.5,2.2-1.8C466.9,148,463.7,143.6,458.5,143.6z"/>
				<path fill="#FFFFFF" d="M504.3,152.2c-1.7-5.3-4-9-9.7-9c-3.2,0-5.7,2.3-5.7,6c0,4,2.7,5.8,7.8,8.2c7.9,3.8,11.9,6.5,11.9,12.6
					c0,8.5-7.7,12.8-15,12.8c-4.8,0-9-1.5-10.9-2.6c-0.5-2.7-1.3-7.7-1.7-10.8l2.7-0.5c1.7,5.9,4.9,10.7,11.3,10.7
					c3.5,0,6.4-2.4,6.4-6.3c0-4.1-2.5-6.3-7.4-8.6c-6.4-3.1-11.7-6.1-11.7-12.7c0-6.7,5.7-11.9,14.4-11.9c3.9,0,7,0.9,8.8,1.2
					c0.3,2.2,0.9,8,1.4,10.2L504.3,152.2z"/>
			</g>
		</g>
	</g>
	<g>
		<defs>
			<rect id="SVGID_5_" width="750" height="500"/>
		</defs>
		<clipPath id="SVGID_6_">
			<use xlink:href="#SVGID_5_"  overflow="visible"/>
		</clipPath>
		<g clip-path="url(#SVGID_6_)">
			<g>
				<path fill="#FFE8A9" d="M782.8,406.8c-30.4-16.1-66.6-9.5-99.1,0.9c-32.4,10.4-65,24.6-98.8,22.5c-43.4-2.7-83-31.9-126.4-32.2
					c-49.4-0.3-94.4,36.9-143.8,36c-32.6-0.6-63.4-17.8-96-18.5c-31.6-0.7-62,14.1-93.6,16.1c-34.6,2.2-68.2-11.1-101.7-20.4
					c-33.6-9.3-70.8-14.2-101.5,3.2v142.8h861V406.8z"/>
			</g>
			<g opacity="0.8">
				<g>
					<g>
						<path fill="#FFE8A9" d="M802.1,439.6c-33.7-22-78.3-16.6-116.8-5c-38.5,11.7-76.5,29-116.8,28.6c-26-0.2-51.3-7.9-77-12.1
							c-25.7-4.2-53.6-4.4-76,8.9c61.3-12.8,121.2,28.9,183.8,29.5c35.9,0.3,70.3-12.9,105.4-19.9c35.2-7,75.2-6.6,102.5,16.6
							L802.1,439.6z"/>
					</g>
					<g>
						<path fill="#FFE8A9" d="M221.6,451.1c-32.9,3.6-63.7,17.3-95,28.1C95.3,490,61.4,498,29.3,490c21.4,16.5,50.5,20,77.3,16.2
							s52.1-13.9,77.8-22.4c25.7-8.5,52.6-15.5,79.5-12.5c20.9,2.4,40.7,10.7,61.3,15.3c20.6,4.7,43.6,5.3,61.1-6.5
							C330.6,480.8,276.1,445.1,221.6,451.1z"/>
					</g>
					<g>
						<path fill="#FFE8A9" d="M148.1,438.4c-35.7,9.2-73-1.9-108.5-11.9c-35.4-10-74-18.8-108.3-5.5l-10.5,32.6
							c22.5-13.1,50.2-14,76-10.5c25.8,3.5,51.1,10.9,77,13.1C99.9,458.4,127.8,454.7,148.1,438.4z"/>
					</g>
				</g>
				<path fill="#FFE8A9" d="M743.8,402.9c0,0.8,0.6,1.4,1.4,1.4s1.4-0.6,1.4-1.4c0-0.8-0.6-1.4-1.4-1.4S743.8,402.1,743.8,402.9z"/>
				<path fill="#FFE8A9" d="M709.4,413.5c0,0.8,0.6,1.4,1.4,1.4s1.4-0.6,1.4-1.4c0-0.8-0.6-1.4-1.4-1.4S709.4,412.7,709.4,413.5z"/>
				<path fill="#FFE8A9" d="M723.6,402.9c0,0.8,0.6,1.4,1.4,1.4s1.4-0.6,1.4-1.4c0-0.8-0.6-1.4-1.4-1.4S723.6,402.1,723.6,402.9z"/>
				<path fill="#FFE8A9" d="M737.2,415.2c0,0.8,0.6,1.4,1.4,1.4s1.4-0.6,1.4-1.4c0-0.8-0.6-1.4-1.4-1.4S737.2,414.4,737.2,415.2z"/>
				<path fill="#FFE8A9" d="M719.5,418.1c0,0.8,0.6,1.4,1.4,1.4s1.4-0.6,1.4-1.4c0-0.8-0.6-1.4-1.4-1.4S719.5,417.3,719.5,418.1z"/>
				<path fill="#FFE8A9" d="M454.4,465.1c0,0.8,0.6,1.4,1.4,1.4c0.8,0,1.4-0.6,1.4-1.4c0-0.8-0.6-1.4-1.4-1.4
					C455,463.6,454.4,464.3,454.4,465.1z"/>
				<circle fill="#FFE8A9" cx="446.4" cy="412.1" r="1.4"/>
				<path fill="#FFE8A9" d="M271.2,480.7c0,0.8,0.6,1.4,1.4,1.4c0.8,0,1.4-0.6,1.4-1.4s-0.6-1.4-1.4-1.4
					C271.8,479.3,271.2,479.9,271.2,480.7z"/>
				<circle fill="#FFE8A9" cx="199.6" cy="428.6" r="1.4"/>
				<path fill="#FFE8A9" d="M19.9,484.7c0,0.8,0.6,1.4,1.4,1.4s1.4-0.6,1.4-1.4c0-0.8-0.6-1.4-1.4-1.4S19.9,483.9,19.9,484.7z"/>
				<path fill="#FFE8A9" d="M483.6,475c0,0.8,0.6,1.4,1.4,1.4c0.8,0,1.4-0.6,1.4-1.4s-0.6-1.4-1.4-1.4
					C484.2,473.6,483.6,474.2,483.6,475z"/>
				<circle fill="#FFE8A9" cx="499.6" cy="479" r="1.4"/>
				<path fill="#FFE8A9" d="M482.2,407.8c0,0.8,0.6,1.4,1.4,1.4s1.4-0.6,1.4-1.4c0-0.8-0.6-1.4-1.4-1.4S482.2,407,482.2,407.8z"/>
				<path fill="#FFE8A9" d="M458.3,402.9c0,0.8,0.6,1.4,1.4,1.4c0.8,0,1.4-0.6,1.4-1.4c0-0.8-0.6-1.4-1.4-1.4
					C458.9,401.5,458.3,402.1,458.3,402.9z"/>
				<path fill="#FFE8A9" d="M491.8,487.6c0,0.8,0.6,1.4,1.4,1.4c0.8,0,1.4-0.6,1.4-1.4c0-0.8-0.6-1.4-1.4-1.4
					C492.4,486.1,491.8,486.8,491.8,487.6z"/>
				<path fill="#FFE8A9" d="M472.3,469.1c0,0.8,0.6,1.4,1.4,1.4c0.8,0,1.4-0.6,1.4-1.4c0-0.8-0.6-1.4-1.4-1.4
					C472.9,467.6,472.3,468.3,472.3,469.1z"/>
				<path fill="#FFE8A9" d="M464.7,482.1c0,0.8,0.6,1.4,1.4,1.4c0.8,0,1.4-0.6,1.4-1.4s-0.6-1.4-1.4-1.4
					C465.3,480.7,464.7,481.3,464.7,482.1z"/>
				<path fill="#FFE8A9" d="M467.5,413.5c0,0.8,0.6,1.4,1.4,1.4c0.8,0,1.4-0.6,1.4-1.4c0-0.8-0.6-1.4-1.4-1.4
					C468.1,412.1,467.5,412.7,467.5,413.5z"/>
				<path fill="#FFE8A9" d="M440.1,475c0,0.8,0.6,1.4,1.4,1.4c0.8,0,1.4-0.6,1.4-1.4s-0.6-1.4-1.4-1.4
					C440.7,473.6,440.1,474.2,440.1,475z"/>
				<path fill="#FFE8A9" d="M216.3,421.1c0,0.8,0.6,1.4,1.4,1.4s1.4-0.6,1.4-1.4c0-0.8-0.6-1.4-1.4-1.4S216.3,420.3,216.3,421.1z"/>
				<path fill="#FFE8A9" d="M227.7,486.1c0,0.8,0.6,1.4,1.4,1.4c0.8,0,1.4-0.6,1.4-1.4c0-0.8-0.6-1.4-1.4-1.4
					C228.3,484.7,227.7,485.4,227.7,486.1z"/>
				<path fill="#FFE8A9" d="M230.5,423.1c0,0.8,0.6,1.4,1.4,1.4c0.8,0,1.4-0.6,1.4-1.4c0-0.8-0.6-1.4-1.4-1.4
					C231.2,421.7,230.5,422.3,230.5,423.1z"/>
				<path fill="#FFE8A9" d="M180.4,424.5c0,0.8,0.6,1.4,1.4,1.4c0.8,0,1.4-0.6,1.4-1.4s-0.6-1.4-1.4-1.4
					C181.1,423.1,180.4,423.7,180.4,424.5z"/>
				<path fill="#FFE8A9" d="M48.9,482.1c0,0.8,0.6,1.4,1.4,1.4c0.8,0,1.4-0.6,1.4-1.4s-0.6-1.4-1.4-1.4
					C49.6,480.7,48.9,481.3,48.9,482.1z"/>
				<path fill="#FFE8A9" d="M205,483.5c0,0.8,0.6,1.4,1.4,1.4s1.4-0.6,1.4-1.4c0-0.8-0.6-1.4-1.4-1.4S205,482.8,205,483.5z"/>
				<path fill="#FFE8A9" d="M76.6,485c0,0.8,0.6,1.4,1.4,1.4s1.4-0.6,1.4-1.4s-0.6-1.4-1.4-1.4S76.6,484.2,76.6,485z"/>
				<path fill="#FFE8A9" d="M425.9,463.6c0,0.8,0.6,1.4,1.4,1.4c0.8,0,1.4-0.6,1.4-1.4c0-0.8-0.6-1.4-1.4-1.4
					C426.5,462.2,425.9,462.9,425.9,463.6z"/>
				<path fill="#FFE8A9" d="M430.4,409.2c0,0.8,0.6,1.4,1.4,1.4c0.8,0,1.4-0.6,1.4-1.4c0-0.8-0.6-1.4-1.4-1.4
					C431.1,407.8,430.4,408.4,430.4,409.2z"/>
				<path fill="#FFE8A9" d="M241.9,475c0,0.8,0.6,1.4,1.4,1.4c0.8,0,1.4-0.6,1.4-1.4s-0.6-1.4-1.4-1.4
					C242.6,473.6,241.9,474.2,241.9,475z"/>
				<path fill="#FFE8A9" d="M95.8,482.1c0,0.8,0.6,1.4,1.4,1.4s1.4-0.6,1.4-1.4s-0.6-1.4-1.4-1.4S95.8,481.3,95.8,482.1z"/>
				<path fill="#FFE8A9" d="M728.3,410.6c0,0.8,0.6,1.4,1.4,1.4s1.4-0.6,1.4-1.4c0-0.8-0.6-1.4-1.4-1.4S728.3,409.9,728.3,410.6z"/>
			</g>
			<g>
				<path opacity="0.8" fill="#FFE8A9" d="M114.4,456.8c0,0,30,0.5,17.2,5.4c-12.7,5-18.4,3.8-18.4,3.8L114.4,456.8z"/>
				<g>
					<g>
						<path fill="#FFFFFF" d="M44.1,201.5c0,0,111.2,71.3,72.7,264l-23.1,4.3l-23.1,4.3C-34.2,307.9,44.1,201.5,44.1,201.5z"/>
						<g>
							<defs>
								<path id="SVGID_11_" d="M44.1,201.5c0,0,111.2,71.3,72.7,264l-23.1,4.3l-23.1,4.3C-34.2,307.9,44.1,201.5,44.1,201.5z"/>
							</defs>
							<clipPath id="SVGID_7_">
								<use xlink:href="#SVGID_11_"  overflow="visible"/>
							</clipPath>
							<g clip-path="url(#SVGID_7_)">
								<polygon fill="#EF705B" points="166.8,422 -38.2,271 18.8,494 175.4,466.1 								"/>
								<polygon fill="#FFD95F" points="167.5,435.8 159.3,381.5 -49.5,226.8 -37.5,284.9 								"/>
							</g>
						</g>
					</g>
					<path opacity="0.2" d="M49.7,232.3c5.1,17.6,9.3,35.4,13.3,53.2c4,17.8,7.6,35.7,10.9,53.7c3.3,17.9,6.4,35.9,9.1,54
						c2.7,18.1,5.1,36.2,6.7,54.4c-5.1-17.6-9.3-35.4-13.3-53.2c-4-17.8-7.6-35.7-10.9-53.7c-3.3-17.9-6.4-35.9-9.1-54
						C53.8,268.7,51.3,250.6,49.7,232.3z"/>
				</g>
				<g>
					<path fill="#FFE8A9" d="M131.6,462.2c0,0-21.4,4.3-37.6,1.4c-16.2-2.8-35.8-14.4-55.3-11.7l14.3,25.7l16.6-0.5l20-3.4l33.3-3.1
						L131.6,462.2z"/>
				</g>
				<path opacity="0.8" fill="#FFE8A9" d="M49.3,457.8c0,0.8,0.6,1.4,1.4,1.4c0.8,0,1.4-0.6,1.4-1.4c0-0.8-0.6-1.4-1.4-1.4
					C50,456.4,49.3,457,49.3,457.8z"/>
				<path opacity="0.8" fill="#FFE8A9" d="M62.8,459.2c0,0.8,0.6,1.4,1.4,1.4s1.4-0.6,1.4-1.4s-0.6-1.4-1.4-1.4
					S62.8,458.4,62.8,459.2z"/>
				<path opacity="0.8" fill="#FFE8A9" d="M86.6,468.7c0,0.8,0.6,1.4,1.4,1.4c0.8,0,1.4-0.6,1.4-1.4s-0.6-1.4-1.4-1.4
					C87.3,467.3,86.6,467.9,86.6,468.7z"/>
				<path opacity="0.8" fill="#FFE8A9" d="M106.3,467.3c0,0.8,0.6,1.4,1.4,1.4s1.4-0.6,1.4-1.4c0-0.8-0.6-1.4-1.4-1.4
					S106.3,466.5,106.3,467.3z"/>
				<circle opacity="0.8" fill="#FFE8A9" cx="69" cy="467.3" r="1.4"/>
			</g>
			<g>
				<path fill="#FFE8A9" d="M640.4,438.6c0,0-46.7,12.2-49.2,4.2s53-18.2,53-18.2L640.4,438.6z"/>
				<g>
					<g>
						<circle fill="#F7F7F7" cx="646.9" cy="370.7" r="69.4"/>
						<g>
							<defs>
								<circle id="SVGID_13_" cx="646.9" cy="370.7" r="69.4"/>
							</defs>
							<clipPath id="SVGID_8_">
								<use xlink:href="#SVGID_13_"  overflow="visible"/>
							</clipPath>
							<g clip-path="url(#SVGID_8_)">
								<path fill="#EF705B" d="M632.4,350c0,0-8.6,54.4,46.8,94.8l27.2-7l13.3-25.8C719.6,411.9,695.2,360.4,632.4,350z"/>
								<path fill="#EF705B" d="M632.4,350c0,0-40,45.4-20.2,90.1c0,0-37.4-3.3-42.4-35.4C569.8,404.6,581.7,353.3,632.4,350z"/>
								<path fill="#EF705B" d="M632.4,350c0,0,42.5-26.5,96.2,17.2c0,0,13.3-38.4-4.6-54.4C706,296.9,660.2,298.3,632.4,350z"/>
								<path fill="#EF705B" d="M632.4,350c0,0-12.8-31.8-12.2-52.7c0,0-36.2,4.9-37.1,30.8C583.1,328,600.8,343,632.4,350z"/>
							</g>
						</g>
						<circle fill="#FFD95F" cx="632.9" cy="350.1" r="12.3"/>
					</g>
					<g>
						<defs>
							<circle id="SVGID_15_" cx="646.9" cy="370.7" r="69.4"/>
						</defs>
						<clipPath id="SVGID_9_">
							<use xlink:href="#SVGID_15_"  overflow="visible"/>
						</clipPath>
						<g clip-path="url(#SVGID_9_)">
							
								<ellipse transform="matrix(0.7326 -0.6807 0.6807 0.7326 -59.3511 490.4217)" opacity="0.4" fill="#FFFFFF" cx="594.5" cy="320.7" rx="57.9" ry="32"/>
							
								<ellipse transform="matrix(0.3851 -0.9229 0.9229 0.3851 53.3206 796.2872)" opacity="0.4" fill="#FFFFFF" cx="624.2" cy="358.1" rx="10.3" ry="10.3"/>
						</g>
					</g>
				</g>
				<path fill="#FFE8A9" d="M714.9,421.8c0,0-21.5-14.5-51.3,1.3s-33.3,22.8-48.5,21.3l4.5,9.4l23.5-5.9l22.8-7.7l24.6-8.6l21.3-5.9
					L714.9,421.8z"/>
				<path opacity="0.8" fill="#FFE8A9" d="M686.3,418.6c0,0.8,0.6,1.4,1.4,1.4s1.4-0.6,1.4-1.4c0-0.8-0.6-1.4-1.4-1.4
					S686.3,417.8,686.3,418.6z"/>
				<path opacity="0.8" fill="#FFE8A9" d="M698.3,422.2c0,0.8,0.6,1.4,1.4,1.4c0.8,0,1.4-0.6,1.4-1.4s-0.6-1.4-1.4-1.4
					C698.9,420.8,698.3,421.4,698.3,422.2z"/>
				<path opacity="0.8" fill="#FFE8A9" d="M672.7,430.1c0,0.8,0.6,1.4,1.4,1.4s1.4-0.6,1.4-1.4c0-0.8-0.6-1.4-1.4-1.4
					S672.7,429.3,672.7,430.1z"/>
				<path opacity="0.8" fill="#FFE8A9" d="M655.1,431.5c0,0.8,0.6,1.4,1.4,1.4s1.4-0.6,1.4-1.4c0-0.8-0.6-1.4-1.4-1.4
					S655.1,430.7,655.1,431.5z"/>
			</g>
			<g>
				<path fill="#FFE8A9" d="M400,446.8c0,0-27,2.4-34.2-1.7c-7.2-4,60.8-8.8,48.7-1.2C412,444.9,400,446.8,400,446.8z"/>
				<g>
					<path fill="#EF705B" d="M338.3,414.9c0,0,8.9-4.6,28.2-4.8c10.7,0,17.6,2.4,17.6,2.4s3.6-1.5,8.3-0.5c0,0,8.9-3.5,16.8-3.5
						c7.9,0,18.1,2.6,18.1,2.6s1,1.7,0.6,3.3l-1.1,0.6c0,0,2.5,8.1,2.5,16.9c0,8.8-7.4,10.6-9.5,10.8c-2.1,0.2-10.4,0.4-17.4-5.6
						c-4.9-4.2-8.4-12-9.2-14.2c-0.9-2.2-1.4-4.8-3.5-4.6c-2.1,0.1-2.5,4.6-2.7,6.7c-0.2,2.1-2.8,18.7-14.4,20.5
						c-11.6,1.8-23.5,0.3-26.1-7c-2.6-7.3-3.5-16-5.9-17c-0.9-0.1-0.9-0.1-0.9-0.1L338.3,414.9z"/>
					<g>
						<path fill="#EF705B" d="M338.3,414.9l-45.5,15.3c0,0-9.2,3.4-19.2,9.9c1.4,1.2,2.8,2.3,4.2,3.5c11.1-6.5,31.8-15.7,61.7-22.5
							L338.3,414.9z"/>
						<path opacity="0.25" fill="#EF705B" d="M338.3,414.9l-45.5,15.3c0,0-9.2,3.4-19.2,9.9c1.4,1.2,2.8,2.3,4.2,3.5
							c11.1-6.5,31.8-15.7,61.7-22.5L338.3,414.9z"/>
					</g>
					<g>
						<path fill="#FFD95F" d="M364.1,412.2c0,0,15.8-1.4,19,5.3c3.3,6.7-2.5,23.2-10,25.5c-7.5,2.3-20.3,1.7-23.3-4.6
							c-1.8-3.5-6-17.4-1.4-21.5C353.1,412.8,364.1,412.2,364.1,412.2z"/>
						<g opacity="0.5">
							<defs>
								<path id="SVGID_17_" opacity="0.5" d="M364.1,412.2c0,0,15.8-1.4,19,5.3c3.3,6.7-2.5,23.2-10,25.5
									c-7.5,2.3-20.3,1.7-23.3-4.6c-1.8-3.5-6-17.4-1.4-21.5C353.1,412.8,364.1,412.2,364.1,412.2z"/>
							</defs>
							<clipPath id="SVGID_10_">
								<use xlink:href="#SVGID_17_"  overflow="visible"/>
							</clipPath>
							<ellipse clip-path="url(#SVGID_10_)" fill="#FFFFFF" cx="374" cy="417.2" rx="14.5" ry="13.9"/>
						</g>
						<path opacity="0.5" fill="#6BEDE6" d="M377.5,439.2c-13.7,0-25.5-5.9-31.1-16c-0.1,5.6,2.3,12.8,3.5,15.1
							c3,6.3,15.7,6.9,23.3,4.6c1.8-0.5,3.5-1.9,5-3.8C377.9,439.2,377.7,439.2,377.5,439.2z"/>
					</g>
					<g>
						<path fill="#FFD95F" d="M409.2,410.5c0,0,10.5-0.5,13.9,5.4c3.4,5.9,5.3,17.4,2,22c-3.3,4.6-13.9,3.1-19.8-1.6
							c-5.9-4.8-12.3-17.8-9.4-21.7C397.6,412.5,403,410.7,409.2,410.5z"/>
						<g opacity="0.5">
							<defs>
								<path id="SVGID_19_" opacity="0.5" d="M409.2,410.5c0,0,10.5-0.5,13.9,5.4c3.4,5.9,5.3,17.4,2,22
									c-3.3,4.6-13.9,3.1-19.8-1.6c-5.9-4.8-12.3-17.8-9.4-21.7C397.6,412.5,403,410.7,409.2,410.5z"/>
							</defs>
							<clipPath id="SVGID_12_">
								<use xlink:href="#SVGID_19_"  overflow="visible"/>
							</clipPath>
							<ellipse clip-path="url(#SVGID_12_)" fill="#FFFFFF" cx="418.8" cy="414.1" rx="14.7" ry="14.1"/>
						</g>
						<path opacity="0.5" fill="#6BEDE6" d="M424.8,436.3c-13.1,0-24.2-6-28.7-14.4c1.7,5.2,5.5,11.3,9.2,14.3
							c5.9,4.8,16.5,6.2,19.8,1.6c0.3-0.4,0.6-1,0.8-1.5C425.5,436.3,425.1,436.3,424.8,436.3z"/>
					</g>
				</g>
				<path fill="#FFE8A9" d="M399,448.2c0,0,10.7-7.7,21.2-10c10.5-2.3,12-4.3,14.3-3.2c2.3,1.1-1.3,10.5-1.3,10.5L399,448.2z"/>
				<path fill="#FFE8A9" d="M353.2,445.4c0,0-45,5-77.7-5.3C275.5,440.1,364.6,434.7,353.2,445.4z"/>
				<path fill="#FFE8A9" d="M244.2,434.1c0,0,49.8,6.3,77.3,17c27.5,10.7,32.8,12.8,32.8,12.8s-66.7-8.5-98.7-13.5
					C223.7,445.3,244.2,434.1,244.2,434.1z"/>
				<path fill="#FFE8A9" d="M379.2,448.2c0,0-3.4-5.2-22.6-6.8c-19.2-1.6-24.3,8.7-24.3,8.7l3.2,3.6L379.2,448.2z"/>
				<path opacity="0.8" fill="#FFE8A9" d="M418.1,442.7c0,0.8,0.6,1.4,1.4,1.4c0.8,0,1.4-0.6,1.4-1.4c0-0.8-0.6-1.4-1.4-1.4
					C418.7,441.3,418.1,441.9,418.1,442.7z"/>
				<path opacity="0.8" fill="#FFE8A9" d="M339.4,449.6c0,0.8,0.6,1.4,1.4,1.4s1.4-0.6,1.4-1.4c0-0.8-0.6-1.4-1.4-1.4
					S339.4,448.9,339.4,449.6z"/>
				<path opacity="0.8" fill="#FFE8A9" d="M351.5,444.1c0,0.8,0.6,1.4,1.4,1.4s1.4-0.6,1.4-1.4s-0.6-1.4-1.4-1.4
					S351.5,443.3,351.5,444.1z"/>
				<path opacity="0.8" fill="#FFE8A9" d="M345.6,449c0,0.8,0.6,1.4,1.4,1.4c0.8,0,1.4-0.6,1.4-1.4c0-0.8-0.6-1.4-1.4-1.4
					C346.2,447.6,345.6,448.2,345.6,449z"/>
				<path opacity="0.8" fill="#FFE8A9" d="M262.2,442.7c0,0.8,0.6,1.4,1.4,1.4c0.8,0,1.4-0.6,1.4-1.4c0-0.8-0.6-1.4-1.4-1.4
					C262.8,441.3,262.2,441.9,262.2,442.7z"/>
				<path opacity="0.8" fill="#FFE8A9" d="M285,445.5c0,0.8,0.6,1.4,1.4,1.4s1.4-0.6,1.4-1.4c0-0.8-0.6-1.4-1.4-1.4
					S285,444.7,285,445.5z"/>
				<path opacity="0.8" fill="#FFE8A9" d="M274.1,448c0,0.8,0.6,1.4,1.4,1.4c0.8,0,1.4-0.6,1.4-1.4c0-0.8-0.6-1.4-1.4-1.4
					C274.7,446.6,274.1,447.3,274.1,448z"/>
				<path opacity="0.8" fill="#FFE8A9" d="M298.3,450.4c0,0.8,0.6,1.4,1.4,1.4c0.8,0,1.4-0.6,1.4-1.4c0-0.8-0.6-1.4-1.4-1.4
					C299,449,298.3,449.6,298.3,450.4z"/>
				<path opacity="0.8" fill="#FFE8A9" d="M429.1,438.1c0,0.8,0.6,1.4,1.4,1.4c0.8,0,1.4-0.6,1.4-1.4c0-0.8-0.6-1.4-1.4-1.4
					C429.7,436.7,429.1,437.3,429.1,438.1z"/>
			</g>
			<g>
				<path fill="#FFE8A9" d="M241.6,426.1c0,0-63.3,4.1-60.6,10.7c2.7,6.6,55.9,3.5,55.9,3.5L241.6,426.1z"/>
				<g>
					<path fill="#EF705B" d="M209,379.2c2.6-0.7,12.5,20.2,15.6,21c3.1,0.8,24.8-9.6,26.2-7.5c1.4,2.1-15.9,19.3-15.8,23
						c0,3.7,16.7,19.7,14.6,22.7c-2,3-21.9-10.5-26.5-9.1s-13.9,21-16.9,19.9c-3-1,3.3-22.9,0.7-27.1c-2.6-4.2-24.3-4.8-25.1-7.7
						c-0.8-2.9,21.4-5.6,24.8-9.2C210.1,401.7,206.4,379.9,209,379.2z"/>
					<g>
						<circle opacity="0.4" fill="#EF705B" cx="218.8" cy="413.3" r="3.6"/>
						<path opacity="0.4" fill="#EF705B" d="M244.7,396.4c0.2,0.6,0.8,1,1.5,0.8c0.6-0.2,1-0.8,0.8-1.5c-0.2-0.6-0.8-1-1.5-0.8
							C244.9,395.1,244.6,395.7,244.7,396.4z"/>
						<path opacity="0.4" fill="#EF705B" d="M240.3,399.4c0.2,0.7,0.9,1.1,1.6,0.9c0.7-0.2,1.1-0.9,0.9-1.6
							c-0.2-0.7-0.9-1.1-1.6-0.9C240.5,398,240.1,398.7,240.3,399.4z"/>
						<path opacity="0.4" fill="#EF705B" d="M235.6,402.5c0.2,0.8,1.1,1.3,1.9,1c0.8-0.2,1.3-1.1,1-1.9c-0.2-0.8-1.1-1.3-1.9-1
							C235.8,400.8,235.4,401.7,235.6,402.5z"/>
						<path opacity="0.4" fill="#EF705B" d="M230.2,406.3c0.3,0.9,1.2,1.5,2.2,1.2c0.9-0.3,1.5-1.2,1.2-2.2
							c-0.3-0.9-1.2-1.5-2.2-1.2C230.5,404.4,230,405.4,230.2,406.3z"/>
						<path opacity="0.4" fill="#EF705B" d="M224.4,410.1c0.3,1.1,1.5,1.7,2.6,1.4c1.1-0.3,1.7-1.5,1.4-2.6
							c-0.3-1.1-1.5-1.7-2.6-1.4C224.7,407.9,224.1,409,224.4,410.1z"/>
						<path opacity="0.4" fill="#EF705B" d="M243.3,433.2c-0.6,0.3-0.7,1.1-0.4,1.6s1.1,0.7,1.6,0.4c0.6-0.3,0.7-1.1,0.4-1.6
							C244.6,433.1,243.9,432.9,243.3,433.2z"/>
						<path opacity="0.4" fill="#EF705B" d="M239.5,429.7c-0.6,0.4-0.8,1.2-0.4,1.8c0.4,0.6,1.2,0.8,1.8,0.4
							c0.6-0.4,0.8-1.2,0.4-1.8C240.9,429.5,240.1,429.3,239.5,429.7z"/>
						<path opacity="0.4" fill="#EF705B" d="M235.4,425.8c-0.7,0.4-0.9,1.4-0.5,2.1c0.4,0.7,1.4,0.9,2.1,0.5
							c0.7-0.4,0.9-1.4,0.5-2.1C237,425.6,236.1,425.4,235.4,425.8z"/>
						<path opacity="0.4" fill="#EF705B" d="M230.5,421.6c-0.8,0.5-1.1,1.6-0.6,2.4s1.6,1.1,2.4,0.6c0.8-0.5,1.1-1.6,0.6-2.4
							C232.4,421.4,231.3,421.1,230.5,421.6z"/>
						<path opacity="0.4" fill="#EF705B" d="M225.1,416.7c-1,0.6-1.3,1.9-0.7,2.8c0.6,1,1.9,1.3,2.8,0.7c1-0.6,1.3-1.9,0.7-2.8
							C227.3,416.4,226,416.1,225.1,416.7z"/>
						<path opacity="0.4" fill="#EF705B" d="M208.5,443.2c0.7,0,1.2,0.5,1.2,1.1c0,0.7-0.5,1.2-1.1,1.2c-0.7,0-1.2-0.5-1.2-1.1
							C207.4,443.8,207.9,443.3,208.5,443.2z"/>
						<path opacity="0.4" fill="#EF705B" d="M210.1,438.1c0.7,0,1.3,0.5,1.4,1.3c0,0.7-0.5,1.3-1.3,1.4c-0.7,0-1.3-0.5-1.4-1.3
							C208.8,438.7,209.4,438.1,210.1,438.1z"/>
						<path opacity="0.4" fill="#EF705B" d="M211.8,432.5c0.8,0,1.5,0.6,1.6,1.5c0,0.8-0.6,1.5-1.5,1.6c-0.8,0-1.5-0.6-1.6-1.5
							C210.3,433.2,210.9,432.5,211.8,432.5z"/>
						<path opacity="0.4" fill="#EF705B" d="M213.5,426.1c1,0,1.8,0.7,1.8,1.7c0,1-0.7,1.8-1.7,1.8c-1,0-1.8-0.7-1.8-1.7
							C211.8,427,212.6,426.1,213.5,426.1z"/>
						<path opacity="0.4" fill="#EF705B" d="M215.6,420.1c1.1,0,2.1,0.9,2.1,2c0,1.1-0.9,2.1-2,2.1c-1.1,0-2.1-0.9-2.1-2
							C213.6,421.1,214.4,420.1,215.6,420.1z"/>
						<path opacity="0.4" fill="#EF705B" d="M188,413.4c0.3,0.6,0,1.3-0.6,1.6c-0.6,0.3-1.3,0-1.6-0.6c-0.3-0.6,0-1.3,0.6-1.6
							C187,412.6,187.7,412.8,188,413.4z"/>
						<path opacity="0.4" fill="#EF705B" d="M193.4,413.3c0.3,0.7,0,1.4-0.7,1.7c-0.7,0.3-1.4,0-1.7-0.7c-0.3-0.7,0-1.4,0.7-1.7
							C192.3,412.3,193.1,412.6,193.4,413.3z"/>
						<path opacity="0.4" fill="#EF705B" d="M199,412.8c0.3,0.8,0,1.6-0.8,2c-0.8,0.3-1.6,0-2-0.8c-0.3-0.8,0-1.6,0.8-2
							S198.7,412,199,412.8z"/>
						<path opacity="0.4" fill="#EF705B" d="M205.8,412.7c0.4,0.9,0,1.9-0.9,2.3c-0.9,0.4-1.9,0-2.3-0.9c-0.4-0.9,0-1.9,0.9-2.3
							C204.4,411.4,205.4,411.8,205.8,412.7z"/>
						<path opacity="0.4" fill="#EF705B" d="M213,412.7c0.5,1,0,2.3-1.1,2.7c-1,0.5-2.3,0-2.7-1.1c-0.5-1,0-2.3,1.1-2.7
							C211.3,411.2,212.5,411.7,213,412.7z"/>
						<path opacity="0.4" fill="#EF705B" d="M211.1,384.4c-0.5,0.4-1.3,0.3-1.6-0.3c-0.4-0.5-0.3-1.3,0.3-1.6
							c0.5-0.4,1.3-0.3,1.6,0.3C211.7,383.3,211.6,384,211.1,384.4z"/>
						<path opacity="0.4" fill="#EF705B" d="M212.4,389.9c-0.6,0.4-1.4,0.3-1.8-0.3c-0.4-0.6-0.3-1.4,0.3-1.8
							c0.6-0.4,1.4-0.3,1.8,0.3C213.1,388.7,213,389.5,212.4,389.9z"/>
						<path opacity="0.4" fill="#EF705B" d="M213.8,394.8c-0.7,0.5-1.6,0.3-2.1-0.4c-0.5-0.7-0.3-1.6,0.4-2.1
							c0.7-0.5,1.6-0.3,2.1,0.4C214.7,393.3,214.5,394.3,213.8,394.8z"/>
						<path opacity="0.4" fill="#EF705B" d="M215.6,400.8c-0.8,0.6-1.9,0.4-2.4-0.4s-0.4-1.9,0.4-2.4c0.8-0.6,1.9-0.4,2.4,0.4
							C216.6,399.2,216.4,400.3,215.6,400.8z"/>
						<path opacity="0.4" fill="#EF705B" d="M217.8,407.2c-0.9,0.7-2.2,0.4-2.9-0.5c-0.7-0.9-0.4-2.2,0.5-2.9
							c0.9-0.7,2.2-0.4,2.9,0.5C219,405.2,218.8,406.5,217.8,407.2z"/>
					</g>
				</g>
				<path fill="#FFE8A9" d="M255.7,436c0,0-3-4.2-19.6-1.2c-16.5,3-26.6-3.9-38-1.1s-14.9,18.8-14.9,18.8l19.8-0.9l33.9-5L255.7,436
					z"/>
			</g>
			<g>
				<path fill="#FFE8A9" d="M514.1,436c0,0,38.1,0.8,38.6,3.9c0.5,3.1-31.6,2.9-31.6,2.9L514.1,436z"/>
				<g>
					<path fill="#E26756" d="M500.9,412.9c0,0-11.2,15-8.7,20.5c2.5,5.5,21.1,0.5,21.1,0.5L500.9,412.9z"/>
					<path fill="#E26756" d="M532.5,423.8c0,0-0.5,18.8-5.8,21.5c-5.4,2.7-16.9-12.6-16.9-12.6L532.5,423.8z"/>
					<path fill="#EF705B" d="M547.5,417.3c0,0,2.5-2.9,2.4-5.7c-0.1-2.8-3.8-5.3-3.8-5.3s1.2-3.9,0.5-6.5c-0.7-2.5-5.3-3.7-5.3-3.7
						s0.5-4.1-2-6.2c-2.5-2.1-6.4-1.2-6.4-1.2s-1.3-3.8-4.3-4.9s-6.4,1.2-6.4,1.2s-2.2-3-5.8-3c-3.6,0.1-5.4,3.6-5.4,3.6
						s-3.5-1.8-6.5-0.4c-2.9,1.4-3.6,5.4-3.6,5.4s-4.1-0.6-6.2,1.8c-2.1,2.4-1.7,6-1.7,6c-0.9,0.2-1.8,1.2-2.4,3
						c-0.6,1.8,11.6,34.4,19,37c7.4,2.6,37.5-16.4,37.8-17.4C547.9,420.1,547.7,419.6,547.5,417.3z"/>
					<g opacity="0.5">
						<path fill="#EF705B" d="M532.4,389.7c-0.8,1.9-1.6,3.7-2.4,5.6l-2.5,5.6c-1.6,3.7-3.3,7.4-5,11.1c-1.7,3.7-3.4,7.4-5.2,11.1
							l-2.6,5.5c-0.9,1.8-1.8,3.7-2.7,5.5c0.8-1.9,1.6-3.7,2.4-5.6l2.5-5.6c1.6-3.7,3.3-7.4,5-11.1c1.7-3.7,3.4-7.4,5.2-11.1
							l2.6-5.5C530.6,393.4,531.5,391.5,532.4,389.7z"/>
						<path fill="#EF705B" d="M540.5,397c-1,1.6-2.1,3.1-3.1,4.7l-3.2,4.7c-2.1,3.1-4.3,6.2-6.4,9.2c-2.2,3.1-4.3,6.1-6.5,9.2
							l-3.3,4.5c-1.1,1.5-2.2,3-3.4,4.5c1-1.6,2.1-3.1,3.1-4.7l3.2-4.7c2.1-3.1,4.3-6.2,6.4-9.2c2.2-3.1,4.3-6.1,6.5-9.2l3.3-4.5
							C538.3,400.1,539.4,398.5,540.5,397z"/>
						<path fill="#EF705B" d="M545.5,406.9c-1.1,1.2-2.3,2.3-3.4,3.5l-3.5,3.5c-2.3,2.3-4.7,4.6-7.1,6.8c-2.4,2.3-4.7,4.5-7.2,6.7
							l-3.6,3.3c-1.2,1.1-2.4,2.2-3.7,3.3c1.1-1.2,2.3-2.3,3.4-3.5l3.5-3.5c2.3-2.3,4.7-4.6,7.1-6.8c2.4-2.3,4.7-4.5,7.2-6.7
							l3.6-3.3C543.1,409.1,544.3,408,545.5,406.9z"/>
						<path fill="#EF705B" d="M546.7,417.7c-1.2,0.8-2.4,1.6-3.6,2.4l-3.6,2.4c-2.4,1.6-4.8,3.1-7.3,4.7c-2.4,1.5-4.9,3-7.3,4.5
							l-3.7,2.2c-1.2,0.7-2.5,1.5-3.7,2.2c1.2-0.8,2.4-1.6,3.6-2.4l3.6-2.4c2.4-1.6,4.8-3.1,7.3-4.7c2.4-1.5,4.9-3,7.3-4.5l3.7-2.2
							C544.2,419.1,545.4,418.4,546.7,417.7z"/>
						<path fill="#EF705B" d="M522,386.1c-0.4,2-0.8,4-1.3,6l-1.3,6c-0.9,4-1.9,7.9-2.8,11.9c-1,4-1.9,7.9-2.9,11.9l-1.5,5.9
							c-0.5,2-1,3.9-1.6,5.9c0.4-2,0.8-4,1.3-6l1.3-6c0.9-4,1.9-7.9,2.8-11.9c1-4,1.9-7.9,2.9-11.9l1.5-5.9
							C520.9,390.1,521.5,388.1,522,386.1z"/>
						<path fill="#EF705B" d="M511.1,386.9c0,1.9-0.1,3.7-0.1,5.6l-0.2,5.6c-0.1,3.7-0.4,7.5-0.5,11.2c-0.2,3.7-0.4,7.5-0.7,11.2
							l-0.4,5.6c-0.2,1.9-0.3,3.7-0.5,5.6c0-1.9,0.1-3.7,0.1-5.6l0.2-5.6c0.1-3.7,0.4-7.5,0.5-11.2c0.2-3.7,0.4-7.5,0.7-11.2
							l0.4-5.6C510.8,390.6,511,388.8,511.1,386.9z"/>
						<path fill="#EF705B" d="M501.1,391.5c0.3,1.6,0.6,3.2,0.9,4.8l0.8,4.8c0.5,3.2,1,6.5,1.5,9.7c0.5,3.2,0.9,6.5,1.3,9.7l0.6,4.9
							c0.2,1.6,0.4,3.3,0.5,4.9c-0.3-1.6-0.6-3.2-0.9-4.8l-0.8-4.8c-0.5-3.2-1-6.5-1.5-9.7c-0.5-3.2-0.9-6.5-1.3-9.7l-0.6-4.9
							C501.4,394.8,501.2,393.1,501.1,391.5z"/>
						<path fill="#EF705B" d="M493.5,399.3c0.6,1.3,1.1,2.7,1.6,4l1.5,4c1,2.7,2,5.4,3,8.1c1,2.7,1.9,5.4,2.8,8.1l1.4,4.1
							c0.4,1.4,0.9,2.7,1.3,4.1c-0.6-1.3-1.1-2.7-1.6-4l-1.5-4c-1-2.7-2-5.4-3-8.1c-1-2.7-1.9-5.4-2.8-8.1l-1.4-4.1
							C494.4,402,493.9,400.7,493.5,399.3z"/>
					</g>
				</g>
				<path fill="#FFE8A9" d="M482.2,426.3c0,0,6.6-4.2,16,0.5c9.4,4.7,26.7,15.1,47.4,16.8l-2.6,7.7l-38.6-3.1l-22.9-15.3
					L482.2,426.3z"/>
			</g>
		</g>
	</g>
	<g>
		<path fill="#FFFFFF" d="M495.4,59.4c-1.1,1.5-2,3.2-2.6,5c-0.1,0.4-0.3,0.8-0.4,1.2c-0.4-0.3-0.7-0.6-1.1-0.9
			c-1.5-1.2-3.2-2.3-5-3c-1.8-0.7-3.8-1.2-5.8-1.1c-2,0.1-3.9,0.7-5.4,1.6c1.9-0.1,3.6-0.1,5.2,0.4c1.6,0.5,3.1,1.1,4.5,2
			c1.4,0.9,2.7,1.9,4,3.1c0.6,0.6,1.2,1.2,1.8,1.8c0.6,0.6,1.2,1.3,1.6,1.8l3.4,4.2l0.2-5.4c0.1-1.5,0.1-3.1,0.5-4.5
			c0.1-0.4,0.2-0.8,0.3-1.1c0.1-0.4,0.2-0.7,0.3-1.1c0.3-0.7,0.6-1.5,0.9-2.2c1.4-2.9,3.4-5.6,5.8-8.1c-1.7,0.6-3.2,1.5-4.7,2.6
			C497.8,56.6,496.5,57.9,495.4,59.4z"/>
		<path fill="#FFFFFF" d="M229.2,67.1c-2,0.4-4.1,1.1-6,2.1c-0.8,0.4-1.5,1-2.3,1.5c-0.2-0.8-0.5-1.6-0.8-2.4
			c-0.8-1.9-1.8-3.8-3.1-5.5c-1.3-1.7-2.9-3.1-4.7-4.2c-1.9-1-3.9-1.5-5.9-1.5c1.8,0.9,3.5,1.8,4.8,3.1c1.3,1.3,2.4,2.7,3.3,4.3
			c0.9,1.6,1.5,3.3,2.1,5c0.3,0.9,0.5,1.7,0.7,2.6c0.2,0.9,0.4,1.8,0.5,2.6l0.6,4.8l3-3.8c1-1.3,2.3-2.4,3.7-3.4
			c1.5-0.9,3.1-1.7,4.9-2.3c1.7-0.6,3.6-1.1,5.5-1.5c1.9-0.4,3.8-0.7,5.8-1c-1.9-0.6-3.9-0.8-5.9-1
			C233.3,66.6,231.2,66.7,229.2,67.1z"/>
		<path fill="#FFFFFF" d="M538,32.7c-2.2,0.6-4.3,1.4-6.3,2.6c-2,1.2-3.8,2.8-5.2,4.8c-0.3,0.5-0.7,1-1,1.5
			c-0.1,0.2-0.2,0.4-0.3,0.6c-0.5-0.7-0.9-1.4-1.4-2.1c-1.5-1.9-3.2-3.6-5.1-5c-1.9-1.5-4.2-2.4-6.5-3l-1.7-0.3
			c-0.6,0-1.2-0.1-1.8-0.1c-0.3,0-0.6,0-0.9,0l-0.9,0.1c-0.6,0.1-1.1,0.1-1.7,0.2c0.6,0.1,1.1,0.2,1.7,0.4l0.8,0.2
			c0.3,0.1,0.5,0.2,0.8,0.3c0.5,0.2,1,0.3,1.6,0.5l1.5,0.7c0.5,0.2,0.9,0.5,1.4,0.7c0.4,0.3,0.9,0.5,1.3,0.9
			c0.4,0.3,0.8,0.6,1.3,0.9c0.4,0.4,0.8,0.7,1.2,1c1.5,1.4,2.9,3,4,4.8c0.6,0.9,1.1,1.8,1.7,2.7c0.5,0.9,1,1.9,1.4,2.7l2.3,5.3
			l1.6-5.6l0.4-1.4l0.2-0.7l0.3-0.7c0.2-0.4,0.4-0.9,0.6-1.3c0.2-0.4,0.5-0.8,0.7-1.2c1-1.6,2.3-3.1,3.9-4.4
			c1.6-1.3,3.3-2.4,5.2-3.3c1.9-1,3.8-1.8,5.9-2.5C542.4,31.8,540.2,32.2,538,32.7z"/>
	</g>
</g>
</svg>
