<?xml version="1.0" encoding="utf-8"?>
<!-- Generator: Adobe Illustrator 23.0.2, SVG Export Plug-In . SVG Version: 6.00 Build 0)  -->
<svg version="1.1" id="Layer_1" xmlns="http://www.w3.org/2000/svg" xmlns:xlink="http://www.w3.org/1999/xlink" x="0px" y="0px"
	 viewBox="0 0 1400 1400" enable-background="new 0 0 1400 1400" xml:space="preserve">
<g id="XMLID_92_">
	<defs>
		<rect id="XMLID_73_" x="2.1" y="0" width="1400" height="1400"/>
	</defs>
	<clipPath id="XMLID_94_">
		<use xlink:href="#XMLID_73_"  overflow="visible"/>
	</clipPath>
	<path id="XMLID_96_" clip-path="url(#XMLID_94_)" fill-rule="evenodd" clip-rule="evenodd" fill="#8ED8F8" d="M1402.1,0v568.9
		c-198-73.7-439.4-117-700-117s-502,43.3-700,117V0H1402.1z"/>
	<path id="XMLID_97_" clip-path="url(#XMLID_94_)" fill-rule="evenodd" clip-rule="evenodd" fill="#AEE2FA" d="M1402.1,568.9V1400
		H2.1V568.9c198-73.7,439.4-117,700-117S1204.2,495.2,1402.1,568.9z"/>
	<path id="XMLID_88_" clip-path="url(#XMLID_94_)" fill-rule="evenodd" clip-rule="evenodd" fill="#D7F0FC" d="M119.3,661.4
		c4.8-22.6,36.6-54.1,54.5-39.5c-0.6-13.8,6.8-27.7,18.6-34.8c11.8-7.2,27.5-7.4,39.5-0.5c14.4-47.8,67.7-80.3,116.8-71.3
		c49.1,9,87.4,58.3,83.9,108.2c0.9-7,10.3-10.3,16.7-7.4s10.2,9.7,12.5,16.4c3.1,9.3,4.2,19.3,3.1,29H119.3z"/>
	<path id="XMLID_71_" clip-path="url(#XMLID_94_)" fill-rule="evenodd" clip-rule="evenodd" fill="#D7F0FC" d="M628.3,1264
		c15.9-87.6,99.2-157.9,188.2-158.8c65-0.6,135.1,42.6,141.6,107.4c14-26.1,52.6-30.6,78.1-15.5c25.5,15.2,39.7,43.9,48,72.4
		c39.2-29.4,102.4-18.3,129.2,22.8c2.8-89.8,83.7-159.6,168.7-188.7c26.8-9.2,57-15.3,82.9-3.9c16.2,7.1,28.8,20.4,40.7,33.4
		c25.8,28.3,51.1,58.2,65.3,93.9c14.4,36,16.5,75.6,18.4,114.4c2.2,43.9,3.1,92.3-24.6,126.5c-15.6,19.3-38.5,31.4-61.4,40.9
		c-133.2,55.4-283.5,42.2-427,28.1c-83.4-8.2-166.8-16.4-250.2-24.6c-64.4-6.3-130.5-13.1-188.7-41.5c-14.4-7-28.8-15.9-37.1-29.7
		c-8.2-13.8-8.3-33.6,3.8-44.2L628.3,1264z"/>
	<g id="XMLID_64_" clip-path="url(#XMLID_94_)">
		<g id="XMLID_21_">
			<g id="XMLID_1_">
				<path id="XMLID_87_" fill-rule="evenodd" clip-rule="evenodd" fill="#002B62" d="M467.5,346.8l0.5-96.1
					c11.4,2.4,25.4,2.9,36.4,0.7l2.1,62.9L467.5,346.8z"/>
				<path id="XMLID_86_" fill-rule="evenodd" clip-rule="evenodd" fill="#E6E7E8" d="M469.5,250.8l0.2-9.2c-0.4-9.1,4.8-17.6,14-18
					c8.4-0.4,12.2-0.9,18.5,10.3l1,17.6C492.1,253.7,480.9,253.2,469.5,250.8"/>
				<path id="XMLID_27_" fill-rule="evenodd" clip-rule="evenodd" fill="#DE9E7A" d="M502.6,214.6c0.5-1.9,0.9-4.5,2.1-6.1
					c1-1.4,2.3-0.8,2.3-3.2c0-3.8,0-7.7-0.1-11.5c0-0.8,0-1.6-0.2-2.3c0-0.1,0-0.2-0.1-0.2c-0.9-2.9-4.5-3.9-7.6-4.5
					c-2.7-0.5-5.5-1-8.2-1.4c-1.5-0.3-2.9-0.5-4.4-0.3c-5,0.5-6.9,3.6-8.2,8.2c-0.7,2.4-1.4,4.2-2.2,5.4c-0.3,0.5-0.6,0.8-0.9,1.1
					c-0.3,0.3-0.6,0.6-0.9,0.7l-0.2,0.1l-0.1,0c-0.5,0.2-1-0.1-1.2-0.7c-0.4-1.2-1.3,0.5-0.7-1.3c-1.5,2.6-3.3,5.2-5.5,7.7
					c11.7,4.6,23.4,8.9,35.7,9.6C502.5,215.5,502.5,215.1,502.6,214.6z"/>
				<path id="XMLID_28_" fill-rule="evenodd" clip-rule="evenodd" fill="#FAB187" d="M466.7,206.3c-1.9,2.2-4.1,4.1-6.4,5.6
					c6.8,14.3,10.1,12,13.1,24c8.2,14.1,31.1,3.6,28.8-7.2c-0.9-4.2-0.7-8.6,0.2-12.8C490.1,215.2,478.4,211,466.7,206.3z"/>
				<path id="XMLID_82_" fill-rule="evenodd" clip-rule="evenodd" fill="#002B62" d="M490.8,368.9c-6,0.7-12.2-0.3-17.5-2.8
					l-71.3-31.1c-16.1-9-13.3-25.5-8.9-33.5c5.2-9.5,15.2-12.5,30.2-4.8l62.5,27.8l0.1,0l20.5-11.3
					C505.8,330.8,513.7,366.4,490.8,368.9"/>
				<path id="XMLID_7_" fill-rule="evenodd" clip-rule="evenodd" d="M273.6,970.8l34.4,3.3l0.4-6.1c10.1,4,29.3,11.4,33.6,11.7
					c6,0.4,22.1,1.3,29.2,1.8c3.5,0.2,5-4.1,5.6-8.6c2.9-5.1,3.8-13.5,3.8-13.5L357,956c0,0-18.7-13.4-22.9-19.8
					c-1.5-2.4-2.7-11.7-2.7-11.7l-23.7-1.4c0,0-1.2,4.6-4.3,8.5c-0.4-3.1-0.8-5.4-0.8-5.4c-6-0.4-22.1-2.4-22.8,3.1
					c0,0-4.3,3.9-5.4,26.1c-0.2,2.5-0.3,5.3-0.4,8.5c0,0,0,0,0,0L273.6,970.8z M279.8,929.6c0-0.2,0-0.3,0.1-0.5
					C279.8,929.2,279.8,929.3,279.8,929.6z"/>
				<g id="XMLID_14_">
					<rect id="XMLID_77_" x="446" y="193" fill-rule="evenodd" clip-rule="evenodd" fill="#C2C4C6" width="51.7" height="12.1"/>
					<rect id="XMLID_76_" x="497.7" y="190" fill-rule="evenodd" clip-rule="evenodd" fill="#C2C4C6" width="35.1" height="18.2"/>
					<rect id="XMLID_75_" x="532.7" y="188" fill-rule="evenodd" clip-rule="evenodd" fill="#C2C4C6" width="75.5" height="22.5"/>
					<rect id="XMLID_74_" x="608.3" y="184.4" fill-rule="evenodd" clip-rule="evenodd" fill="#A3A5A8" width="109" height="31"/>
					
						<rect id="XMLID_70_" x="715.6" y="181.9" fill-rule="evenodd" clip-rule="evenodd" fill="#A3A5A8" width="14.4" height="36.2"/>
					<rect id="XMLID_68_" x="446" y="199.1" fill-rule="evenodd" clip-rule="evenodd" fill="#A9ABAE" width="51.7" height="6.1"/>
					<rect id="XMLID_67_" x="497.7" y="199.1" fill-rule="evenodd" clip-rule="evenodd" fill="#A9ABAE" width="35.1" height="9.1"/>
					
						<rect id="XMLID_66_" x="532.7" y="199.1" fill-rule="evenodd" clip-rule="evenodd" fill="#A9ABAE" width="75.5" height="11.5"/>
					<rect id="XMLID_65_" x="608.3" y="199.1" fill-rule="evenodd" clip-rule="evenodd" fill="#8A8C8E" width="109" height="16.4"/>
					<rect id="XMLID_61_" x="715.6" y="199.1" fill-rule="evenodd" clip-rule="evenodd" fill="#8A8C8E" width="14.4" height="19"/>
				</g>
				<path id="XMLID_8_" fill-rule="evenodd" clip-rule="evenodd" d="M379.7,976.5l34.6,1.2v-6.1c10.3,3.4,29.9,9.6,34.3,9.6
					c6,0,22.1,0,29.3,0c3.5,0,4.7-4.4,5-9c2.6-5.3,2.9-13.7,2.9-13.7l-23.7-1.9c0,0-19.5-12.2-24.1-18.4c-1.7-2.3-3.4-11.5-3.4-11.5
					l-23.8,0c0,0-0.9,4.6-3.8,8.8c-0.6-3-1.1-5.4-1.1-5.4c-6,0-22.2-1.1-22.5,4.4c0,0-4.1,4.2-3.8,26.4c0,2.5,0,5.3,0.1,8.5
					c0,0,0,0,0,0V976.5z M383.4,935.1c0-0.2,0-0.3,0-0.5C383.4,934.6,383.4,934.8,383.4,935.1z"/>
				<path id="XMLID_58_" fill-rule="evenodd" clip-rule="evenodd" fill="#002B62" d="M437.7,936.3c0.1-10.5-3-22.5-6.8-326.6
					l0.2-17.1l-66.9-23.3l9.1,65.1l8.2,296.8c0,0,0.3,10.2,3.8,10.4c3.4,0.2,49-0.4,49-0.4S437.7,941.8,437.7,936.3"/>
				<path id="XMLID_57_" fill-rule="evenodd" clip-rule="evenodd" fill="#002B62" d="M397.9,589.8c-5.2,12.1-45.6-0.9-45.6-5.9
					c-0.1-12.5,5.1,38.7,5.1,38.7l26.8-0.7C384.2,622,401.8,580.8,397.9,589.8"/>
				<path id="XMLID_56_" fill-rule="evenodd" clip-rule="evenodd" fill="#003D7C" d="M362.7,565.5l-0.4,15.8l6.2,12.5l-10.6,154.5
					L331.5,938c0,0,0.5,4.1-3.7,4.9c-7.8,1.4-34.9-1.4-44.8-2.2c-4.1-0.3-3.4-7.3-3.4-7.3l23.5-200.7c0,0,2.1-77.4,2-87.7
					c-0.1-9.8-3.1-25.6-3.4-43.8c0-1,0-2,0-2.9c0-5.5,0-12.3,0-18.3c0-7.8,0-14.1,0-14.1L362.7,565.5z"/>
				<path id="XMLID_55_" fill-rule="evenodd" clip-rule="evenodd" fill="#002E66" d="M289.6,330.3l0.2,43.1l0.4,73.2l0.7,149.6
					l67.1,0.5l51,0.2l29.9,0.3l-0.4-266.3c-0.1-22.7-7.5-42.1-29.5-42.1l-83.7,0.3C303.1,288.9,289.5,307.5,289.6,330.3"/>
				<polygon id="XMLID_54_" fill-rule="evenodd" clip-rule="evenodd" fill="#FFFFFF" points="388.7,477 337.6,288.5 412.8,289.6 
					410.5,377.6 				"/>
				<path id="XMLID_53_" fill-rule="evenodd" clip-rule="evenodd" fill="#920609" d="M382.6,321.9c-8.2,0-14.4-9-15.1-12.8
					c-0.4-2.1,5.7-6.4,11.8-6.2c5,0.1,10.2,4.4,10.6,6.2C390.7,313.2,390.8,321.9,382.6,321.9"/>
				<path id="XMLID_52_" fill-rule="evenodd" clip-rule="evenodd" fill="#920609" d="M375.1,430l2-75.6c0-27.1,1.6-34.4-1.4-37.3
					l4.7-9.1c8.3,7.5,12.7,19.4,12.7,46.3l3.2,89.4l-7.5,32.8C388.8,476.6,381.2,448.5,375.1,430"/>
				<polygon id="XMLID_51_" fill-rule="evenodd" clip-rule="evenodd" fill="#D1D3D4" points="399.3,293.5 392.2,289.1 380.8,300 
					380.3,300.4 380.6,299.9 340.9,289.9 348,305.9 369.3,320.9 378.6,303.6 383.7,303.8 394.7,318.2 404.2,300.9 				"/>
				<path id="XMLID_50_" fill-rule="evenodd" clip-rule="evenodd" fill="#6C5251" d="M311,189.4c2.5,35.1,19.6,55.8,38.9,53.7
					c10.2-1.1,2.7-28.3,2.3-31.5c-0.4-3.2-4.1-22-7.1-23.1C342.1,187.5,311,189.4,311,189.4"/>
				<path id="XMLID_49_" fill-rule="evenodd" clip-rule="evenodd" fill="#6C5251" d="M340.4,221.9c-2-3.9-3.2,8.6-3.3,7.1
					c-0.6-26.3-23.8-6.6-25.8-35.7c-1.7-24.8-5-25-5.8-37.1c-1.5-24,14.3-53.4,67.3-53.2c29.5,0.1,44.4,10.9,53.3,24.3
					c21.6,32.2-6.5,82.1-6.5,82.1L340.4,221.9z"/>
				<polygon id="XMLID_48_" fill-rule="evenodd" clip-rule="evenodd" fill="#FAB187" points="389.2,292.2 380.8,300 342.9,290.4 
					342.6,238.3 388.9,235.6 				"/>
				<path id="XMLID_47_" fill-rule="evenodd" clip-rule="evenodd" fill="#DE9E7A" d="M389.1,279.4c-12.1,1.5-46-2.6-46-10.3
					c0-7.7-0.5-41.9-0.5-41.9l46.3,0.1L389.1,279.4z"/>
				<path id="XMLID_46_" fill-rule="evenodd" clip-rule="evenodd" fill="#DE9E7A" d="M426.2,210.2c0,9.9-8.7,32.7-14.2,39.5
					c-2.3,2.9-5.6,9.5-13,11.7c-6.8,2-10.8,3.4-10.8,7c0,3.9-8.4-3.6-11.2-3.6c-34,0.1-43.3-28.2-43.4-52.3l2.7-38.6
					c-0.1-26.4,17.9-45.4,44.2-45.4c26.3,0.1,47.6,17.4,47.8,43.8L426.2,210.2z"/>
				<path id="XMLID_45_" fill-rule="evenodd" clip-rule="evenodd" fill="#FAB187" d="M427.9,210.2c-0.9,27.7-7.2,53.3-41.9,53.2
					c-34.7-0.1-42.9-40.7-42.1-67l0.2-22.9c-0.2-36.5,14.3-49.9,40.5-50c34.8-0.2,45.2,21.4,44.4,47.8L427.9,210.2z"/>
				<path id="XMLID_44_" fill-rule="evenodd" clip-rule="evenodd" fill="#DE9E7A" d="M394.7,246.5c-2.9,0-4.5-0.3-6.7-0.7
					c-2.2-0.4-3.3,1.3-1.3,2.6c2.2,1.5,4.9,2.2,8.3,2c1.8-0.1,3.4-0.7,4.8-1.4c2.1-1.2,1.9-3.6,0-3.1
					C398.5,246.1,396.3,246.5,394.7,246.5"/>
				<path id="XMLID_43_" fill-rule="evenodd" clip-rule="evenodd" fill="#DE9E7A" d="M343.1,194c0.8,9.8-4.4,18.3-11.5,18.9
					c-3.9,1.4-12.3-6.6-14.2-16.7c-0.8-9.8,1.9-18.7,10.2-18.8C334.6,176.2,342.3,184.2,343.1,194"/>
				<path id="XMLID_42_" fill-rule="evenodd" clip-rule="evenodd" d="M408.5,188.3c0,3.4,2.9,6.1,6.4,6.1c3.5,0,6.3-2.7,6.3-6.1
					c0-3.4-2.9-6.1-6.4-6.1C411.4,182.2,408.5,184.9,408.5,188.3"/>
				<path id="XMLID_41_" fill-rule="evenodd" clip-rule="evenodd" fill="#554342" d="M365.9,178.8c0.3,0,0.5,0,0.8-0.1
					c10.5-3.1,18.1-2.2,18.2-2.1c1.5,0.2,2.8-0.9,3-2.3c0.2-1.5-0.9-2.8-2.3-3c-0.4,0-8.9-1.1-20.4,2.3c-1.4,0.4-2.3,1.9-1.8,3.4
					C363.6,178.1,364.7,178.8,365.9,178.8"/>
				<path id="XMLID_40_" fill-rule="evenodd" clip-rule="evenodd" fill="#554342" d="M427.3,179.8c1,0,1.9-0.5,2.4-1.4
					c0.7-1.3,0.3-3-1-3.7c-7.7-4.3-17.3-3.9-17.7-3.9c-1.5,0.1-2.7,1.3-2.6,2.8c0.1,1.5,1.3,2.6,2.8,2.6c0.1,0,8.4-0.3,14.8,3.2
					C426.4,179.7,426.9,179.8,427.3,179.8"/>
				<path id="XMLID_39_" fill-rule="evenodd" clip-rule="evenodd" fill="#6C5251" d="M332.3,170c-0.1-14.9,6.8-28.3,17.5-37.1
					c-5.2-6.2-7.2-15.6-6.1-16.4c1.8-1.4,32-22.1,60.2-6.5c19.3,10.7,21.6,21.3,18.4,28.9l0.1,0.3l-0.2-0.2
					c-2.9,6.8-9.8-8.3-15.7-8.1c-18.1,0.6-33,3.2-44.4,4.3c-7.1,0.7-15.9,7.6-15.7,24.9c0.2,20.3-1.9,29.5-4.2,33.2
					c-2.3,3.6-4.7,2-4.7,2c0-9.9-2.9-17.7-10-17.8L332.3,170z"/>
				<path id="XMLID_38_" fill-rule="evenodd" clip-rule="evenodd" fill="#6C5251" d="M368,115.1c-24.6,2.9-14.4,18.2-1.7,24.3
					c25.3,12.1,58.3,0.9,62.2,18.6c0,0,2.3-29.1-18.2-38C389.8,111,369.9,114.8,368,115.1"/>
				<path id="XMLID_37_" fill-rule="evenodd" clip-rule="evenodd" fill="#40252F" d="M349.9,140.2c0.3,1.3,1,1.8,2.9,0L349.9,140.2z
					"/>
				<path id="XMLID_36_" fill-rule="evenodd" clip-rule="evenodd" fill="#6C5251" d="M339.9,173.2c2.1,1.2,5.4,17,6.1,4.2
					c0.7-13.2,4.2-18,9.8-22.5c8-6.3,6.5-23.6-2.5-33.2c-0.7-0.8-4.1-1.4-8.2,1.2c-4.1,2.5-11.9,8.9-13.7,15.1
					C329.6,144.3,339.9,173.2,339.9,173.2"/>
				<path id="XMLID_35_" fill-rule="evenodd" clip-rule="evenodd" fill="#7E392D" d="M380.5,224c0,0,4.1,13.1,17.4,13.3
					c14.6,0.3,14.7-13.4,14.7-13.4L380.5,224z"/>
				<path id="XMLID_34_" fill-rule="evenodd" clip-rule="evenodd" fill="#FFFFFF" d="M380.5,224c0,0,0.1,0.4,0.4,1.1
					c4.7,1.7,10.6,2.9,18.1,2.9c5.3,0,9.6-0.4,13.1-1.2c0.4-1.7,0.4-3,0.4-3L380.5,224z"/>
				<path id="XMLID_33_" fill-rule="evenodd" clip-rule="evenodd" fill="#6C5251" d="M353.7,123.9c5.3,8.8,1.4,4.7,3.3,7.3
					c2,2.6,8.9,17.7,34.6,19.5c25.7,1.8,25.9,4,25.9,4s-0.2-10-16.6-11.4c-16.1-1.4-24.8-4-26.9-8.2
					C372.4,132.1,353.7,123.9,353.7,123.9"/>
				<path id="XMLID_32_" fill-rule="evenodd" clip-rule="evenodd" fill="#003D7C" d="M316.3,289.4c6.6,3,13.2,13.1,17.7,35.8
					c5.4,27.9,54.9,151.3,54.9,151.3s-31-120.3-31-147.4c0-27.1-13.9-40.8-21.2-40.8C329.3,288.4,314.8,288.7,316.3,289.4"/>
				<path id="XMLID_31_" fill-rule="evenodd" clip-rule="evenodd" fill="#003D7C" d="M405.8,288.4c27.7,0,23.3,36.8,23.3,36.8
					L388.7,477c0,0,20.1-117.5,20.1-146.7c0-34.4-18.7-41.6-18.7-41.6C390.1,288.7,388.7,288.4,405.8,288.4"/>
				<polygon id="XMLID_30_" fill-rule="evenodd" clip-rule="evenodd" fill="#ECE5D1" points="408.9,288.3 408.9,288.4 408.9,288.4 
									"/>
				<g id="XMLID_3_">
					<g id="XMLID_13_">
						<path id="XMLID_20_" fill-rule="evenodd" clip-rule="evenodd" fill="#654632" d="M592.1,648.9V717c0,6.6-5.3,11.9-11.9,11.9
							H376.1c-6.6,0-11.9-5.3-11.9-11.9v-68.1H592.1z"/>
						<path id="XMLID_22_" fill-rule="evenodd" clip-rule="evenodd" fill="#79553F" d="M592.1,581.2v67.8c0,5.3-4.3,9.6-9.6,9.6
							H373.8c-5.3,0-9.6-4.3-9.6-9.6v-67.8c0-6.6,5.3-11.9,11.9-11.9h204.1C586.8,569.3,592.1,574.6,592.1,581.2z"/>
						
							<path id="XMLID_6_" fill-rule="evenodd" clip-rule="evenodd" fill="none" stroke="#79553F" stroke-width="7" stroke-miterlimit="10" d="
							M511.3,550.4h-65c-3.6,0-6.5,2.9-6.5,6.5v21.6h78v-21.6C517.8,553.3,514.9,550.4,511.3,550.4z"/>
						
							<rect id="XMLID_5_" x="408.6" y="642.5" fill-rule="evenodd" clip-rule="evenodd" fill="#F78F41" width="12.9" height="30.7"/>
						
							<rect id="XMLID_10_" x="540.3" y="642.5" fill-rule="evenodd" clip-rule="evenodd" fill="#F78F41" width="12.9" height="30.7"/>
						<rect id="XMLID_9_" x="411.1" y="659.2" fill-rule="evenodd" clip-rule="evenodd" fill="#FBB04C" width="7.7" height="11"/>
						<rect id="XMLID_12_" x="542.9" y="659.2" fill-rule="evenodd" clip-rule="evenodd" fill="#FBB04C" width="7.7" height="11"/>
						
							<rect id="XMLID_11_" x="448.5" y="543.4" fill-rule="evenodd" clip-rule="evenodd" fill="#492E1E" width="62.3" height="13.7"/>
					</g>
					<path id="XMLID_79_" fill-rule="evenodd" clip-rule="evenodd" fill="#E6E7E8" d="M435.9,510.7l13.7,9.2
						c7.7,4.4,11.8,13.1,7.4,20.7c-4,7-3.4,10.5-15.8,9.7l-22-11.3C423.1,528.3,428.4,518.7,435.9,510.7"/>
					<path id="XMLID_29_" fill-rule="evenodd" clip-rule="evenodd" fill="#FAB187" d="M501.4,566.6c-6.2-6.7-11.7-12.6-15.6-16.8
						c-1.7-1.8-2.8-3.5-3.5-4.8c-0.2-0.5-0.4-0.9-0.5-1.3c-0.1-0.5-0.2-0.8-0.1-1.2l0-0.2l0-0.1c0.2-0.5,0.6-0.8,1.3-0.7
						c1.5,0.4,4.2,2.7,7.4,6.9c6.9,8.9,16,2.8,12.5-1.2c-7.9-9.3-12-21.4-23.1-22.7c-16.2-1.9-15.9,2.3-27.7-1.5
						c-16.3-0.5-19.5,24.5-9,28.3c10.8,3.9,14.2,11.3,19.9,17.9c7.9,9.3,8.4,13.6,19.5,9.3c2.2-0.9,5.4-3.6,7.4-4.7
						c1.7-1,3,0.1,4.6,1.9C499.8,581.4,508.7,574.5,501.4,566.6"/>
					<path id="XMLID_3557_" fill-rule="evenodd" clip-rule="evenodd" fill="#003D7C" d="M297.8,467c-3.3-5.1-5.4-11-5.5-16.8
						l-3-121.3c0.6-18.5,16.6-23.5,25.7-23.3c10.9,0.3,18.1,7.8,18,24.6l1.9,112l0.1,0.1L437.2,511c-7.7,8.3-13.2,18.2-17.3,29.3
						l-111.6-63.3C304.2,474.7,300.6,471.2,297.8,467"/>
				</g>
				<path id="XMLID_3561_" fill-rule="evenodd" clip-rule="evenodd" d="M368.3,190.4c12-2.7,5.9-1.9,18.1-2.6c0.6,0,1.1,0.5,1.1,1.1
					c0,0.6-0.5,1.1-1.1,1.1c-11.7,0.6-6-0.2-17.4,2.4c-0.6,0.2-1.2-0.1-1.4-0.7C367.4,191.3,367.7,190.6,368.3,190.4"/>
				<path id="XMLID_24_" fill-rule="evenodd" clip-rule="evenodd" fill="#FAB187" d="M472.1,198.6c0.1-0.5,0.4-1.1,0.8-2.1
					c3.9-10.5-6-15-7.6-10c-3.7,11.6-9.9,15-5.2,25c0.1,0.1,0.1,0.3,0.2,0.4C465.2,208.7,469.4,203.5,472.1,198.6z"/>
			</g>
			<circle id="XMLID_2_" fill-rule="evenodd" clip-rule="evenodd" fill="#E39436" cx="390.2" cy="483.5" r="6.5"/>
			<circle id="XMLID_4_" fill-rule="evenodd" clip-rule="evenodd" fill="#E39436" cx="390.2" cy="529.9" r="6.5"/>
			<path id="XMLID_15_" fill-rule="evenodd" clip-rule="evenodd" fill="#FAB187" d="M479.2,180.5c-6.5-0.2-6.9,15.1-1.4,18.5
				c1.5,0.9,3.3,0.5,4.4-0.6c1.1-1.1,1.6-2.8,1.8-4.5c0.2-1.7,0.2-3.5,0.3-5.2c0.2-1.8,0.5-3.8-0.3-5.4
				C483.1,181.3,481,180.5,479.2,180.5z"/>
			<path id="XMLID_16_" fill-rule="evenodd" clip-rule="evenodd" fill="#FAB187" d="M492,192.7c-1,3-3.2,5.9-6.9,4.2
				c-4.1-1.9-2.4-10.7-1.7-14c0.2-0.9,0.5-1.9,1.1-2.5c0.7-0.7,1.7-0.9,2.7-1c2-0.2,4.3-0.2,5.6,1.4c0.6,0.7,0.8,1.6,0.9,2.5
				C494.2,186.4,493.1,189.6,492,192.7z"/>
			<path id="XMLID_17_" fill-rule="evenodd" clip-rule="evenodd" fill="#FAB187" d="M496.4,195.1c-6,3.2-4.7-7.1-4.2-9.8
				c0.3-1.5,0.5-3,1.3-4.3c0.8-1.3,2-2.4,3.6-2.6c1.5-0.1,3,0.7,4.3,1.5c0.8,0.5,1.7,1.1,2.1,2c0.6,1.4-0.1,2.9-0.8,4.3
				c-0.9,1.7-1.8,3.3-2.8,5C499,192.6,498,194.2,496.4,195.1z"/>
			<path id="XMLID_18_" fill-rule="evenodd" clip-rule="evenodd" fill="#FAB187" d="M509.1,186.4c0.7,2,1.1,4.1,1.4,6.3
				c0.2,1.8,0,4.1-1.7,4.8c-0.9,0.4-2,0.1-2.8-0.4c-0.8-0.6-1.4-1.4-1.9-2.3c-1.7-2.9-3.9-6.4-1.9-9.7
				C504.6,180.9,507.8,182.5,509.1,186.4z"/>
			<rect id="XMLID_19_" x="437.3" y="188.3" fill-rule="evenodd" clip-rule="evenodd" fill="#C2C4C6" width="14" height="10.8"/>
			<rect id="XMLID_23_" x="437.3" y="199.1" fill-rule="evenodd" clip-rule="evenodd" fill="#A9ABAE" width="14" height="10.8"/>
		</g>
		<path id="XMLID_83_" fill-rule="evenodd" clip-rule="evenodd" fill="#005685" d="M573.5,989.1l-16.1-21.6H276.5l-73.7-142
			l-0.5,0.8c-6.7,42.5-16.4,83.2-24.2,126.3c-28.8,170.4-61.1,333.6-91.2,497h609.4c-24.4-86.6-55-171.9-77.1-263
			C602.2,1119,590.7,1053.6,573.5,989.1z"/>
		<path id="XMLID_78_" fill-rule="evenodd" clip-rule="evenodd" fill="#00679D" d="M700,1157l-1.9-1.4L573.5,989.1
			c17.2,64.5,28.7,129.9,45.6,197.5c22.1,91.1,52.7,176.3,77.1,263h22.7c-4.5-31.4-7.5-63-7.8-95
			C711.1,1288.8,710.4,1222.4,700,1157z"/>
		<path id="XMLID_85_" fill-rule="evenodd" clip-rule="evenodd" fill="#005685" d="M789.1,1417.6c-8.2-71.5-8.9-140.4-22.9-211.5
			L700,1157c10.4,65.4,11.1,131.8,11.1,197.6c0.3,32,3.3,63.6,7.8,95h77.6c-0.5-3.6-1-7.3-1.4-11
			C794.1,1431.6,790.1,1424.6,789.1,1417.6z"/>
		<path id="XMLID_89_" fill-rule="evenodd" clip-rule="evenodd" fill="#036787" d="M766.9,1206.6l-0.6-0.5
			c13.9,71.1,14.6,140,22.9,211.5c1,7,5,14,6,21c0.4,3.7,0.9,7.4,1.4,11h132.4L766.9,1206.6z"/>
		<path id="XMLID_84_" fill-rule="evenodd" clip-rule="evenodd" fill="#003F66" d="M202.3,826.3L100.8,995c0,0-129,136.5-141,160.5
			l-24,294H86.9c30.1-163.4,62.4-326.6,91.2-497C186,909.5,195.6,868.9,202.3,826.3z"/>
		<rect id="XMLID_62_" x="314.6" y="956.4" fill-rule="evenodd" clip-rule="evenodd" fill="#654632" width="9.8" height="475.2"/>
		<rect id="XMLID_69_" x="483.4" y="956.4" fill-rule="evenodd" clip-rule="evenodd" fill="#654632" width="9.8" height="475.2"/>
		<rect id="XMLID_25_" x="292.3" y="1104.5" fill-rule="evenodd" clip-rule="evenodd" fill="#79553F" width="227.3" height="33"/>
		<rect id="XMLID_63_" x="292.3" y="1245.6" fill-rule="evenodd" clip-rule="evenodd" fill="#79553F" width="227.3" height="33"/>
	</g>
	<path id="XMLID_26_" clip-path="url(#XMLID_94_)" fill-rule="evenodd" clip-rule="evenodd" fill="#FFFFFF" d="M-90.1,1284.8
		c29.7-45.2,89-60.8,143-61.7c31.5-0.5,64.2,3.1,91.5,18.9c27.3,15.8,47.9,46.2,44.6,77.5c18.3-24.9,51.2-38.2,81.6-33.2
		c30.5,5.1,57.2,28.4,66.5,57.9c15.2-46.5,53.8-84.6,100.5-99.3c46.7-14.6,100.2-5.4,139.2,24.1c0.2-27.7,17.9-53.3,41.2-68.2
		c23.4-14.9,51.7-20.2,79.4-21.1c136.9-4.1,262.7,103.4,301.2,234.9c6.1,20.7,10.2,43.4,2.1,63.5c-1.3,3.1-2.9,6.3-5.6,8.2
		c-4,2.9-9.4,2.5-14.4,2.1c-81.3-7-162.9-9.9-244.5-8.6c-110.8,1.7-221.3,11.1-332,15.6c-210.8,8.5-421.8-0.8-632.5-10.1
		L-90.1,1284.8z"/>
	<path id="XMLID_72_" clip-path="url(#XMLID_94_)" fill-rule="evenodd" clip-rule="evenodd" fill="#D7F0FC" d="M819.6,375.2
		c4.8-22.6,36.6-54.1,54.5-39.5c-0.6-13.8,6.8-27.7,18.6-34.8c11.8-7.2,27.5-7.4,39.5-0.5c14.4-47.8,67.7-80.3,116.8-71.3
		c49.1,9,87.4,58.3,83.9,108.2c0.9-7,10.3-10.3,16.7-7.4s10.2,9.7,12.5,16.4c3.1,9.3,4.2,19.3,3.1,29H819.6z"/>
	<path id="XMLID_91_" clip-path="url(#XMLID_94_)" fill-rule="evenodd" clip-rule="evenodd" fill="#D7F0FC" d="M1117.4,850.1
		c3.9-13.6,11.7-27.2,24.6-32.9s31.3,0.3,34.3,14.1c9.3-24.8,20.9-52.1,45.3-62.5c17.4-7.4,37.5-4.2,55.6,1.4
		c8.4,2.6,17.1,5.8,23.2,12.2c11.3,11.8,10.8,30.2,9.6,46.5c5.7-7.3,17.5-8.9,24.9-3.3c7.4,5.6,9.1,17.4,3.6,24.9
		c-1.2,1.6-3.4,3-4.9,1.8s2.1-3.5,1.9-1.6L1117.4,850.1z"/>
	<path id="XMLID_90_" clip-path="url(#XMLID_94_)" fill-rule="evenodd" clip-rule="evenodd" fill="#D7F0FC" d="M31.2,153.5
		c3.9-13.6,11.7-27.2,24.6-32.9c12.9-5.7,31.3,0.3,34.3,14.1c9.3-24.8,20.9-52.1,45.3-62.5c17.4-7.4,37.5-4.2,55.6,1.4
		c8.4,2.6,17.1,5.8,23.2,12.2c11.3,11.8,10.8,30.2,9.6,46.5c5.7-7.3,17.5-8.9,24.9-3.3c7.4,5.6,9.1,17.4,3.6,24.9
		c-1.2,1.6-3.4,3-4.9,1.8c-1.5-1.2,2.1-3.5,1.9-1.6L31.2,153.5z"/>
</g>
</svg>
